<svg width="66" height="66" viewBox="0 0 66 66" fill="none" xmlns="http://www.w3.org/2000/svg">
<g filter="url(#filter0_d_2_271)">
<path d="M59.1 31.9C60.84 31.9 62 30.74 62 29C62 27.55 60.84 26.1 59.1 26.1H56.2V20.3H59.1C60.84 20.3 62 19.14 62 17.4C62 15.95 60.84 14.5 59.1 14.5H56.2V11.6C56.2 8.41 53.59 5.8 50.4 5.8H47.5V2.9C47.5 1.45 46.34 0 44.6 0C43.15 0 41.7 1.16 41.7 2.9V5.8H35.9V2.9C35.9 1.45 34.74 0 33 0C31.26 0 30.1 1.16 30.1 2.9V5.8H24.3V2.9C24.3 1.45 23.14 0 21.4 0C19.66 0 18.5 1.16 18.5 2.9V5.8H15.6C12.41 5.8 9.8 8.41 9.8 11.6V14.5H6.9C5.16 14.5 4 15.66 4 17.4C4 18.85 5.16 20.3 6.9 20.3H9.8V26.1H6.9C5.16 26.1 4 27.26 4 29C4 30.45 5.16 31.9 6.9 31.9H9.8V37.7H6.9C5.16 37.7 4 38.86 4 40.6C4 42.05 5.16 43.5 6.9 43.5H9.8V46.4C9.8 49.59 12.41 52.2 15.6 52.2H18.5V55.1C18.5 56.55 19.66 58 21.4 58C23.14 58 24.3 56.84 24.3 55.1V52.2H30.1V55.1C30.1 56.55 31.26 58 33 58C34.74 58 35.9 56.84 35.9 55.1V52.2H41.7V55.1C41.7 56.55 42.86 58 44.6 58C46.05 58 47.5 56.84 47.5 55.1V52.2H50.4C53.59 52.2 56.2 49.59 56.2 46.4V43.5H59.1C60.84 43.5 62 42.34 62 40.6C62 39.15 60.84 37.7 59.1 37.7H56.2V31.9H59.1ZM50.4 46.4H15.6V11.6H50.4V46.4Z" fill="url(#paint0_linear_2_271)"/>
<path d="M42.6004 17.4004H23.4004C22.2958 17.4004 21.4004 18.2958 21.4004 19.4004V38.6004C21.4004 39.705 22.2958 40.6004 23.4004 40.6004H42.6004C43.705 40.6004 44.6004 39.705 44.6004 38.6004V19.4004C44.6004 18.2958 43.705 17.4004 42.6004 17.4004Z" fill="url(#paint1_linear_2_271)"/>
</g>
<defs>
<filter id="filter0_d_2_271" x="0" y="0" width="66" height="66" filterUnits="userSpaceOnUse" color-interpolation-filters="sRGB">
<feFlood flood-opacity="0" result="BackgroundImageFix"/>
<feColorMatrix in="SourceAlpha" type="matrix" values="0 0 0 0 0 0 0 0 0 0 0 0 0 0 0 0 0 0 127 0" result="hardAlpha"/>
<feOffset dy="4"/>
<feGaussianBlur stdDeviation="2"/>
<feComposite in2="hardAlpha" operator="out"/>
<feColorMatrix type="matrix" values="0 0 0 0 0 0 0 0 0 0 0 0 0 0 0 0 0 0 0.25 0"/>
<feBlend mode="normal" in2="BackgroundImageFix" result="effect1_dropShadow_2_271"/>
<feBlend mode="normal" in="SourceGraphic" in2="effect1_dropShadow_2_271" result="shape"/>
</filter>
<linearGradient id="paint0_linear_2_271" x1="55.5" y1="50.5" x2="-1.72531" y2="-5.2818" gradientUnits="userSpaceOnUse">
<stop stop-color="#00ACD4"/>
<stop offset="1" stop-color="#81EAEE"/>
</linearGradient>
<linearGradient id="paint1_linear_2_271" x1="55.5" y1="50.5" x2="-1.72531" y2="-5.2818" gradientUnits="userSpaceOnUse">
<stop stop-color="#00ACD4"/>
<stop offset="1" stop-color="#81EAEE"/>
</linearGradient>
</defs>
</svg>
