<svg width="15" height="17" viewBox="0 0 15 17" fill="none" xmlns="http://www.w3.org/2000/svg">
<path d="M11.875 11.6667C11.2512 11.6667 10.6875 11.9121 10.2647 12.3056L4.67875 9.05421C4.71833 8.87212 4.75 8.69004 4.75 8.50004C4.75 8.31004 4.71833 8.12796 4.67875 7.94587L10.26 4.69212C10.6875 5.08796 11.2496 5.33337 11.875 5.33337C13.1892 5.33337 14.25 4.27254 14.25 2.95837C14.25 1.64421 13.1892 0.583374 11.875 0.583374C10.5608 0.583374 9.5 1.64421 9.5 2.95837C9.5 3.14837 9.53167 3.33046 9.57125 3.51254L3.99 6.76629C3.5625 6.37046 3.00042 6.12504 2.375 6.12504C1.06083 6.12504 0 7.18587 0 8.50004C0 9.81421 1.06083 10.875 2.375 10.875C3.00042 10.875 3.5625 10.6296 3.99 10.2338L9.56967 13.4939C9.52509 13.6731 9.5017 13.857 9.5 14.0417C9.5 14.5114 9.63929 14.9706 9.90026 15.3612C10.1612 15.7518 10.5322 16.0562 10.9661 16.2359C11.4001 16.4157 11.8776 16.4627 12.3383 16.3711C12.799 16.2794 13.2222 16.0532 13.5544 15.7211C13.8865 15.3889 14.1127 14.9658 14.2044 14.505C14.296 14.0443 14.249 13.5668 14.0692 13.1328C13.8895 12.6989 13.585 12.3279 13.1945 12.067C12.8039 11.806 12.3447 11.6667 11.875 11.6667Z" fill="#5F6B7C"/>
</svg>
